<svg xmlns="http://www.w3.org/2000/svg" viewBox="0 0 1999.97 901.68"><defs><style>.cls-1{fill:none;}</style></defs><g id="Layer_2" data-name="Layer 2"><g id="Logos"><g id="Black_logo" data-name="Black logo"><polygon points="1176.98 377.45 1331.8 377.45 1331.8 418.19 1247.6 532.27 1331.8 532.27 1331.8 580.25 1176.98 580.25 1176.98 539.51 1261.18 425.44 1176.98 425.44 1176.98 377.45"/><path d="M1699.38,505.11c19-7.24,38.94-26.26,38.94-59.76,0-40.74-28.07-67-69.72-67h-95.06V580.25h52.51v-67.9H1646l37.12,67.9h60.66Zm-37.12-39.84h-36.21V424.53h36.21c13.59,0,22.64,8.15,22.64,19.92C1684.9,457.12,1675.85,465.27,1662.26,465.27Z"/><path d="M1445.88,374.73c-61.56,0-105,44.37-105,104.12S1385.22,583,1445.88,583s105.93-44.36,105.93-104.12S1507.45,374.73,1445.88,374.73Zm0,161.16c-30.78,0-51.61-23.54-51.61-57,0-34.4,20.83-57,51.61-57s52.51,23.54,52.51,57S1476.66,535.89,1445.88,535.89Z"/><polygon points="1004.96 377.45 1151.63 377.45 1151.63 424.53 1057.47 424.53 1057.47 454.41 1148.92 454.41 1148.92 500.58 1057.47 500.58 1057.47 533.17 1151.63 533.17 1151.63 580.25 1004.96 580.25 1004.96 377.45"/><path d="M484.37,349.38c0-48-41.64-87.82-92.34-87.82s-92.35,39.84-92.35,87.82v28.07h-38v201.9h0L392,640,522.4,579.35h0v-201h-38Zm-137.61,0c0-22.63,19.92-40.74,45.27-40.74s45.27,18.11,45.27,40.74v28.07H346.76ZM469.89,546.76,392,583l-77.87-36.21V425.44H469.89Z"/><path d="M980.52,445.35c0-40.74-28.07-67-69.71-67H815.74V580.25h52.51v-67.9h19.92l37.12,67.9H986l-44.36-75.14C960.6,497.87,980.52,478.85,980.52,445.35Zm-76,19.92H868.25V424.53h36.22c13.58,0,22.63,8.15,22.63,19.92C927.1,457.12,918.05,465.27,904.47,465.27Z"/><polygon points="628.33 377.45 792.2 377.45 792.2 425.44 736.07 425.44 736.07 580.25 683.56 580.25 683.56 425.44 628.33 425.44 628.33 377.45"/></g><rect class="cls-1" width="1999.97" height="901.68"/></g></g></svg>