<svg xmlns="http://www.w3.org/2000/svg" viewBox="0 0 1999.97 901.69"><defs><style>.cls-1{fill:#fff;}</style></defs><g id="Layer_2" data-name="Layer 2"><g id="Logos"><g id="White_logo_on_black" data-name="White logo on black"><rect width="1999.97" height="901.69"/><polygon class="cls-1" points="1177.01 377.48 1331.83 377.48 1331.83 418.22 1247.63 532.3 1331.83 532.3 1331.83 580.28 1177.01 580.28 1177.01 539.54 1261.21 425.46 1177.01 425.46 1177.01 377.48"/><path class="cls-1" d="M1699.41,505.14c19-7.25,38.93-26.26,38.93-59.76,0-40.74-28.06-67-69.71-67h-95.06v201.9h52.51v-67.9H1646l37.12,67.9h60.66Zm-37.12-39.84h-36.21V424.56h36.21c13.58,0,22.64,8.15,22.64,19.92C1684.93,457.15,1675.87,465.3,1662.29,465.3Z"/><path class="cls-1" d="M1445.91,374.76c-61.57,0-105,44.36-105,104.12S1385.25,583,1445.91,583s105.93-44.37,105.93-104.12S1507.47,374.76,1445.91,374.76Zm0,161.16c-30.78,0-51.61-23.54-51.61-57,0-34.4,20.83-57,51.61-57s52.51,23.54,52.51,57S1476.69,535.92,1445.91,535.92Z"/><polygon class="cls-1" points="1004.99 377.48 1151.66 377.48 1151.66 424.56 1057.5 424.56 1057.5 454.43 1148.94 454.43 1148.94 500.61 1057.5 500.61 1057.5 533.2 1151.66 533.2 1151.66 580.28 1004.99 580.28 1004.99 377.48"/><path class="cls-1" d="M484.4,349.41c0-48-41.65-87.82-92.35-87.82s-92.35,39.84-92.35,87.82v28.07h-38v201.9h0L392.05,640l130.38-60.66h0v-201h-38Zm-137.62,0c0-22.63,19.92-40.74,45.27-40.74s45.27,18.11,45.27,40.74v28.07H346.78ZM469.91,546.78,392.05,583l-77.86-36.22V425.46H469.91Z"/><path class="cls-1" d="M980.55,445.38c0-40.74-28.07-67-69.72-67H815.77v201.9h52.51v-67.9H888.2l37.12,67.9H986l-44.37-75.14C960.63,497.89,980.55,478.88,980.55,445.38ZM904.49,465.3H868.28V424.56h36.21c13.58,0,22.64,8.15,22.64,19.92C927.13,457.15,918.07,465.3,904.49,465.3Z"/><polygon class="cls-1" points="628.36 377.48 792.23 377.48 792.23 425.46 736.1 425.46 736.1 580.28 683.58 580.28 683.58 425.46 628.36 425.46 628.36 377.48"/></g></g></g></svg>