<svg xmlns="http://www.w3.org/2000/svg" viewBox="0 0 1999.97 1999.97"><defs><style>.cls-1{fill:#fff;}.cls-2{fill:none;}</style></defs><g id="Layer_2" data-name="Layer 2"><g id="Logos"><g id="White_logo_square_type" data-name="White logo  square type"><polygon class="cls-1" points="990.5 1167.38 1158.35 1167.38 1158.35 1211.55 1067.06 1335.23 1158.35 1335.23 1158.35 1387.26 990.5 1387.26 990.5 1343.09 1081.79 1219.4 990.5 1219.4 990.5 1167.38"/><path class="cls-1" d="M1556.88,1305.79c20.61-7.86,42.21-28.47,42.21-64.79,0-44.17-30.43-72.64-75.59-72.64H1420.44v218.9h56.93v-73.62H1499l40.24,73.62H1605Zm-40.25-43.19h-39.26v-44.18h39.26c14.73,0,24.54,8.84,24.54,21.6C1541.17,1253.76,1531.36,1262.6,1516.63,1262.6Z"/><path class="cls-1" d="M1282,1164.44c-66.75,0-113.86,48.09-113.86,112.88s48.1,112.88,113.86,112.88,114.85-48.1,114.85-112.88S1348.78,1164.44,1282,1164.44Zm0,174.72c-33.37,0-56-25.52-56-61.84,0-37.3,22.58-61.84,56-61.84S1339,1241,1339,1277.32,1315.41,1339.16,1282,1339.16Z"/><polygon class="cls-1" points="804 1167.38 963.01 1167.38 963.01 1218.42 860.93 1218.42 860.93 1250.82 960.07 1250.82 960.07 1300.88 860.93 1300.88 860.93 1336.21 963.01 1336.21 963.01 1387.26 804 1387.26 804 1167.38"/><path class="cls-1" d="M777.49,1241c0-44.17-30.43-72.64-75.58-72.64H598.84v218.9h56.94v-73.62h21.59l40.25,73.62h65.76l-48.09-81.47C755.9,1297.93,777.49,1277.32,777.49,1241ZM695,1262.6H655.78v-44.18H695c14.72,0,24.54,8.84,24.54,21.6C719.58,1253.76,709.76,1262.6,695,1262.6Z"/><polygon class="cls-1" points="395.65 1167.38 573.32 1167.38 573.32 1219.4 512.46 1219.4 512.46 1387.26 455.53 1387.26 455.53 1219.4 395.65 1219.4 395.65 1167.38"/><path class="cls-1" d="M1110.94,709.23c0-57.48-49.89-105.2-110.62-105.2s-110.63,47.72-110.63,105.2v33.62H844.14V984.7h0l156.18,72.67,156.17-72.67h0V743.94h-45.55Zm-164.85,0c0-27.11,23.86-48.8,54.23-48.8s54.22,21.69,54.22,48.8v33.62H946.09Zm147.49,236.43L1000.32,989l-93.27-43.38V800.33h186.53Z"/></g><rect class="cls-2" width="1999.97" height="1999.97"/></g></g></svg>